<svg xmlns="http://www.w3.org/2000/svg" width="3640" height="3640" viewBox="0 0 3640 3640">
  <rect width="100%" height="100%" fill="#f8fafc"/>
  <line x1="28" y1="28" x2="3612" y2="28" stroke="#cbd5e1" stroke-width="1"/>
  <line x1="28" y1="56" x2="3612" y2="56" stroke="#cbd5e1" stroke-width="1"/>
  <line x1="28" y1="84" x2="3612" y2="84" stroke="#cbd5e1" stroke-width="1"/>
  <line x1="28" y1="112" x2="3612" y2="112" stroke="#cbd5e1" stroke-width="1"/>
  <line x1="28" y1="140" x2="3612" y2="140" stroke="#cbd5e1" stroke-width="1"/>
  <line x1="28" y1="168" x2="3612" y2="168" stroke="#cbd5e1" stroke-width="1"/>
  <line x1="28" y1="196" x2="3612" y2="196" stroke="#cbd5e1" stroke-width="1"/>
  <line x1="28" y1="224" x2="3612" y2="224" stroke="#cbd5e1" stroke-width="1"/>
  <line x1="28" y1="252" x2="3612" y2="252" stroke="#cbd5e1" stroke-width="1"/>
  <line x1="28" y1="280" x2="3612" y2="280" stroke="#cbd5e1" stroke-width="1"/>
  <line x1="28" y1="308" x2="3612" y2="308" stroke="#cbd5e1" stroke-width="1"/>
  <line x1="28" y1="336" x2="3612" y2="336" stroke="#cbd5e1" stroke-width="1"/>
  <line x1="28" y1="364" x2="3612" y2="364" stroke="#cbd5e1" stroke-width="1"/>
  <line x1="28" y1="392" x2="3612" y2="392" stroke="#cbd5e1" stroke-width="1"/>
  <line x1="28" y1="420" x2="3612" y2="420" stroke="#cbd5e1" stroke-width="1"/>
  <line x1="28" y1="448" x2="3612" y2="448" stroke="#cbd5e1" stroke-width="1"/>
  <line x1="28" y1="476" x2="3612" y2="476" stroke="#cbd5e1" stroke-width="1"/>
  <line x1="28" y1="504" x2="3612" y2="504" stroke="#cbd5e1" stroke-width="1"/>
  <line x1="28" y1="532" x2="3612" y2="532" stroke="#cbd5e1" stroke-width="1"/>
  <line x1="28" y1="560" x2="3612" y2="560" stroke="#cbd5e1" stroke-width="1"/>
  <line x1="28" y1="588" x2="3612" y2="588" stroke="#cbd5e1" stroke-width="1"/>
  <line x1="28" y1="616" x2="3612" y2="616" stroke="#cbd5e1" stroke-width="1"/>
  <line x1="28" y1="644" x2="3612" y2="644" stroke="#cbd5e1" stroke-width="1"/>
  <line x1="28" y1="672" x2="3612" y2="672" stroke="#cbd5e1" stroke-width="1"/>
  <line x1="28" y1="700" x2="3612" y2="700" stroke="#cbd5e1" stroke-width="1"/>
  <line x1="28" y1="728" x2="3612" y2="728" stroke="#cbd5e1" stroke-width="1"/>
  <line x1="28" y1="756" x2="3612" y2="756" stroke="#cbd5e1" stroke-width="1"/>
  <line x1="28" y1="784" x2="3612" y2="784" stroke="#cbd5e1" stroke-width="1"/>
  <line x1="28" y1="812" x2="3612" y2="812" stroke="#cbd5e1" stroke-width="1"/>
  <line x1="28" y1="840" x2="3612" y2="840" stroke="#cbd5e1" stroke-width="1"/>
  <line x1="28" y1="868" x2="3612" y2="868" stroke="#cbd5e1" stroke-width="1"/>
  <line x1="28" y1="896" x2="3612" y2="896" stroke="#cbd5e1" stroke-width="1"/>
  <line x1="28" y1="924" x2="3612" y2="924" stroke="#cbd5e1" stroke-width="1"/>
  <line x1="28" y1="952" x2="3612" y2="952" stroke="#cbd5e1" stroke-width="1"/>
  <line x1="28" y1="980" x2="3612" y2="980" stroke="#cbd5e1" stroke-width="1"/>
  <line x1="28" y1="1008" x2="3612" y2="1008" stroke="#cbd5e1" stroke-width="1"/>
  <line x1="28" y1="1036" x2="3612" y2="1036" stroke="#cbd5e1" stroke-width="1"/>
  <line x1="28" y1="1064" x2="3612" y2="1064" stroke="#cbd5e1" stroke-width="1"/>
  <line x1="28" y1="1092" x2="3612" y2="1092" stroke="#cbd5e1" stroke-width="1"/>
  <line x1="28" y1="1120" x2="3612" y2="1120" stroke="#cbd5e1" stroke-width="1"/>
  <line x1="28" y1="1148" x2="3612" y2="1148" stroke="#cbd5e1" stroke-width="1"/>
  <line x1="28" y1="1176" x2="3612" y2="1176" stroke="#cbd5e1" stroke-width="1"/>
  <line x1="28" y1="1204" x2="3612" y2="1204" stroke="#cbd5e1" stroke-width="1"/>
  <line x1="28" y1="1232" x2="3612" y2="1232" stroke="#cbd5e1" stroke-width="1"/>
  <line x1="28" y1="1260" x2="3612" y2="1260" stroke="#cbd5e1" stroke-width="1"/>
  <line x1="28" y1="1288" x2="3612" y2="1288" stroke="#cbd5e1" stroke-width="1"/>
  <line x1="28" y1="1316" x2="3612" y2="1316" stroke="#cbd5e1" stroke-width="1"/>
  <line x1="28" y1="1344" x2="3612" y2="1344" stroke="#cbd5e1" stroke-width="1"/>
  <line x1="28" y1="1372" x2="3612" y2="1372" stroke="#cbd5e1" stroke-width="1"/>
  <line x1="28" y1="1400" x2="3612" y2="1400" stroke="#cbd5e1" stroke-width="1"/>
  <line x1="28" y1="1428" x2="3612" y2="1428" stroke="#cbd5e1" stroke-width="1"/>
  <line x1="28" y1="1456" x2="3612" y2="1456" stroke="#cbd5e1" stroke-width="1"/>
  <line x1="28" y1="1484" x2="3612" y2="1484" stroke="#cbd5e1" stroke-width="1"/>
  <line x1="28" y1="1512" x2="3612" y2="1512" stroke="#cbd5e1" stroke-width="1"/>
  <line x1="28" y1="1540" x2="3612" y2="1540" stroke="#cbd5e1" stroke-width="1"/>
  <line x1="28" y1="1568" x2="3612" y2="1568" stroke="#cbd5e1" stroke-width="1"/>
  <line x1="28" y1="1596" x2="3612" y2="1596" stroke="#cbd5e1" stroke-width="1"/>
  <line x1="28" y1="1624" x2="3612" y2="1624" stroke="#cbd5e1" stroke-width="1"/>
  <line x1="28" y1="1652" x2="3612" y2="1652" stroke="#cbd5e1" stroke-width="1"/>
  <line x1="28" y1="1680" x2="3612" y2="1680" stroke="#cbd5e1" stroke-width="1"/>
  <line x1="28" y1="1708" x2="3612" y2="1708" stroke="#cbd5e1" stroke-width="1"/>
  <line x1="28" y1="1736" x2="3612" y2="1736" stroke="#cbd5e1" stroke-width="1"/>
  <line x1="28" y1="1764" x2="3612" y2="1764" stroke="#cbd5e1" stroke-width="1"/>
  <line x1="28" y1="1792" x2="3612" y2="1792" stroke="#cbd5e1" stroke-width="1"/>
  <line x1="28" y1="1820" x2="3612" y2="1820" stroke="#cbd5e1" stroke-width="1"/>
  <line x1="28" y1="1848" x2="3612" y2="1848" stroke="#cbd5e1" stroke-width="1"/>
  <line x1="28" y1="1876" x2="3612" y2="1876" stroke="#cbd5e1" stroke-width="1"/>
  <line x1="28" y1="1904" x2="3612" y2="1904" stroke="#cbd5e1" stroke-width="1"/>
  <line x1="28" y1="1932" x2="3612" y2="1932" stroke="#cbd5e1" stroke-width="1"/>
  <line x1="28" y1="1960" x2="3612" y2="1960" stroke="#cbd5e1" stroke-width="1"/>
  <line x1="28" y1="1988" x2="3612" y2="1988" stroke="#cbd5e1" stroke-width="1"/>
  <line x1="28" y1="2016" x2="3612" y2="2016" stroke="#cbd5e1" stroke-width="1"/>
  <line x1="28" y1="2044" x2="3612" y2="2044" stroke="#cbd5e1" stroke-width="1"/>
  <line x1="28" y1="2072" x2="3612" y2="2072" stroke="#cbd5e1" stroke-width="1"/>
  <line x1="28" y1="2100" x2="3612" y2="2100" stroke="#cbd5e1" stroke-width="1"/>
  <line x1="28" y1="2128" x2="3612" y2="2128" stroke="#cbd5e1" stroke-width="1"/>
  <line x1="28" y1="2156" x2="3612" y2="2156" stroke="#cbd5e1" stroke-width="1"/>
  <line x1="28" y1="2184" x2="3612" y2="2184" stroke="#cbd5e1" stroke-width="1"/>
  <line x1="28" y1="2212" x2="3612" y2="2212" stroke="#cbd5e1" stroke-width="1"/>
  <line x1="28" y1="2240" x2="3612" y2="2240" stroke="#cbd5e1" stroke-width="1"/>
  <line x1="28" y1="2268" x2="3612" y2="2268" stroke="#cbd5e1" stroke-width="1"/>
  <line x1="28" y1="2296" x2="3612" y2="2296" stroke="#cbd5e1" stroke-width="1"/>
  <line x1="28" y1="2324" x2="3612" y2="2324" stroke="#cbd5e1" stroke-width="1"/>
  <line x1="28" y1="2352" x2="3612" y2="2352" stroke="#cbd5e1" stroke-width="1"/>
  <line x1="28" y1="2380" x2="3612" y2="2380" stroke="#cbd5e1" stroke-width="1"/>
  <line x1="28" y1="2408" x2="3612" y2="2408" stroke="#cbd5e1" stroke-width="1"/>
  <line x1="28" y1="2436" x2="3612" y2="2436" stroke="#cbd5e1" stroke-width="1"/>
  <line x1="28" y1="2464" x2="3612" y2="2464" stroke="#cbd5e1" stroke-width="1"/>
  <line x1="28" y1="2492" x2="3612" y2="2492" stroke="#cbd5e1" stroke-width="1"/>
  <line x1="28" y1="2520" x2="3612" y2="2520" stroke="#cbd5e1" stroke-width="1"/>
  <line x1="28" y1="2548" x2="3612" y2="2548" stroke="#cbd5e1" stroke-width="1"/>
  <line x1="28" y1="2576" x2="3612" y2="2576" stroke="#cbd5e1" stroke-width="1"/>
  <line x1="28" y1="2604" x2="3612" y2="2604" stroke="#cbd5e1" stroke-width="1"/>
  <line x1="28" y1="2632" x2="3612" y2="2632" stroke="#cbd5e1" stroke-width="1"/>
  <line x1="28" y1="2660" x2="3612" y2="2660" stroke="#cbd5e1" stroke-width="1"/>
  <line x1="28" y1="2688" x2="3612" y2="2688" stroke="#cbd5e1" stroke-width="1"/>
  <line x1="28" y1="2716" x2="3612" y2="2716" stroke="#cbd5e1" stroke-width="1"/>
  <line x1="28" y1="2744" x2="3612" y2="2744" stroke="#cbd5e1" stroke-width="1"/>
  <line x1="28" y1="2772" x2="3612" y2="2772" stroke="#cbd5e1" stroke-width="1"/>
  <line x1="28" y1="2800" x2="3612" y2="2800" stroke="#cbd5e1" stroke-width="1"/>
  <line x1="28" y1="2828" x2="3612" y2="2828" stroke="#cbd5e1" stroke-width="1"/>
  <line x1="28" y1="2856" x2="3612" y2="2856" stroke="#cbd5e1" stroke-width="1"/>
  <line x1="28" y1="2884" x2="3612" y2="2884" stroke="#cbd5e1" stroke-width="1"/>
  <line x1="28" y1="2912" x2="3612" y2="2912" stroke="#cbd5e1" stroke-width="1"/>
  <line x1="28" y1="2940" x2="3612" y2="2940" stroke="#cbd5e1" stroke-width="1"/>
  <line x1="28" y1="2968" x2="3612" y2="2968" stroke="#cbd5e1" stroke-width="1"/>
  <line x1="28" y1="2996" x2="3612" y2="2996" stroke="#cbd5e1" stroke-width="1"/>
  <line x1="28" y1="3024" x2="3612" y2="3024" stroke="#cbd5e1" stroke-width="1"/>
  <line x1="28" y1="3052" x2="3612" y2="3052" stroke="#cbd5e1" stroke-width="1"/>
  <line x1="28" y1="3080" x2="3612" y2="3080" stroke="#cbd5e1" stroke-width="1"/>
  <line x1="28" y1="3108" x2="3612" y2="3108" stroke="#cbd5e1" stroke-width="1"/>
  <line x1="28" y1="3136" x2="3612" y2="3136" stroke="#cbd5e1" stroke-width="1"/>
  <line x1="28" y1="3164" x2="3612" y2="3164" stroke="#cbd5e1" stroke-width="1"/>
  <line x1="28" y1="3192" x2="3612" y2="3192" stroke="#cbd5e1" stroke-width="1"/>
  <line x1="28" y1="3220" x2="3612" y2="3220" stroke="#cbd5e1" stroke-width="1"/>
  <line x1="28" y1="3248" x2="3612" y2="3248" stroke="#cbd5e1" stroke-width="1"/>
  <line x1="28" y1="3276" x2="3612" y2="3276" stroke="#cbd5e1" stroke-width="1"/>
  <line x1="28" y1="3304" x2="3612" y2="3304" stroke="#cbd5e1" stroke-width="1"/>
  <line x1="28" y1="3332" x2="3612" y2="3332" stroke="#cbd5e1" stroke-width="1"/>
  <line x1="28" y1="3360" x2="3612" y2="3360" stroke="#cbd5e1" stroke-width="1"/>
  <line x1="28" y1="3388" x2="3612" y2="3388" stroke="#cbd5e1" stroke-width="1"/>
  <line x1="28" y1="3416" x2="3612" y2="3416" stroke="#cbd5e1" stroke-width="1"/>
  <line x1="28" y1="3444" x2="3612" y2="3444" stroke="#cbd5e1" stroke-width="1"/>
  <line x1="28" y1="3472" x2="3612" y2="3472" stroke="#cbd5e1" stroke-width="1"/>
  <line x1="28" y1="3500" x2="3612" y2="3500" stroke="#cbd5e1" stroke-width="1"/>
  <line x1="28" y1="3528" x2="3612" y2="3528" stroke="#cbd5e1" stroke-width="1"/>
  <line x1="28" y1="3556" x2="3612" y2="3556" stroke="#cbd5e1" stroke-width="1"/>
  <line x1="28" y1="3584" x2="3612" y2="3584" stroke="#cbd5e1" stroke-width="1"/>
  <line x1="28" y1="3612" x2="3612" y2="3612" stroke="#cbd5e1" stroke-width="1"/>
  <line x1="28" y1="28" x2="28" y2="3612" stroke="#cbd5e1" stroke-width="1"/>
  <line x1="56" y1="28" x2="56" y2="3612" stroke="#cbd5e1" stroke-width="1"/>
  <line x1="84" y1="28" x2="84" y2="3612" stroke="#cbd5e1" stroke-width="1"/>
  <line x1="112" y1="28" x2="112" y2="3612" stroke="#cbd5e1" stroke-width="1"/>
  <line x1="140" y1="28" x2="140" y2="3612" stroke="#cbd5e1" stroke-width="1"/>
  <line x1="168" y1="28" x2="168" y2="3612" stroke="#cbd5e1" stroke-width="1"/>
  <line x1="196" y1="28" x2="196" y2="3612" stroke="#cbd5e1" stroke-width="1"/>
  <line x1="224" y1="28" x2="224" y2="3612" stroke="#cbd5e1" stroke-width="1"/>
  <line x1="252" y1="28" x2="252" y2="3612" stroke="#cbd5e1" stroke-width="1"/>
  <line x1="280" y1="28" x2="280" y2="3612" stroke="#cbd5e1" stroke-width="1"/>
  <line x1="308" y1="28" x2="308" y2="3612" stroke="#cbd5e1" stroke-width="1"/>
  <line x1="336" y1="28" x2="336" y2="3612" stroke="#cbd5e1" stroke-width="1"/>
  <line x1="364" y1="28" x2="364" y2="3612" stroke="#cbd5e1" stroke-width="1"/>
  <line x1="392" y1="28" x2="392" y2="3612" stroke="#cbd5e1" stroke-width="1"/>
  <line x1="420" y1="28" x2="420" y2="3612" stroke="#cbd5e1" stroke-width="1"/>
  <line x1="448" y1="28" x2="448" y2="3612" stroke="#cbd5e1" stroke-width="1"/>
  <line x1="476" y1="28" x2="476" y2="3612" stroke="#cbd5e1" stroke-width="1"/>
  <line x1="504" y1="28" x2="504" y2="3612" stroke="#cbd5e1" stroke-width="1"/>
  <line x1="532" y1="28" x2="532" y2="3612" stroke="#cbd5e1" stroke-width="1"/>
  <line x1="560" y1="28" x2="560" y2="3612" stroke="#cbd5e1" stroke-width="1"/>
  <line x1="588" y1="28" x2="588" y2="3612" stroke="#cbd5e1" stroke-width="1"/>
  <line x1="616" y1="28" x2="616" y2="3612" stroke="#cbd5e1" stroke-width="1"/>
  <line x1="644" y1="28" x2="644" y2="3612" stroke="#cbd5e1" stroke-width="1"/>
  <line x1="672" y1="28" x2="672" y2="3612" stroke="#cbd5e1" stroke-width="1"/>
  <line x1="700" y1="28" x2="700" y2="3612" stroke="#cbd5e1" stroke-width="1"/>
  <line x1="728" y1="28" x2="728" y2="3612" stroke="#cbd5e1" stroke-width="1"/>
  <line x1="756" y1="28" x2="756" y2="3612" stroke="#cbd5e1" stroke-width="1"/>
  <line x1="784" y1="28" x2="784" y2="3612" stroke="#cbd5e1" stroke-width="1"/>
  <line x1="812" y1="28" x2="812" y2="3612" stroke="#cbd5e1" stroke-width="1"/>
  <line x1="840" y1="28" x2="840" y2="3612" stroke="#cbd5e1" stroke-width="1"/>
  <line x1="868" y1="28" x2="868" y2="3612" stroke="#cbd5e1" stroke-width="1"/>
  <line x1="896" y1="28" x2="896" y2="3612" stroke="#cbd5e1" stroke-width="1"/>
  <line x1="924" y1="28" x2="924" y2="3612" stroke="#cbd5e1" stroke-width="1"/>
  <line x1="952" y1="28" x2="952" y2="3612" stroke="#cbd5e1" stroke-width="1"/>
  <line x1="980" y1="28" x2="980" y2="3612" stroke="#cbd5e1" stroke-width="1"/>
  <line x1="1008" y1="28" x2="1008" y2="3612" stroke="#cbd5e1" stroke-width="1"/>
  <line x1="1036" y1="28" x2="1036" y2="3612" stroke="#cbd5e1" stroke-width="1"/>
  <line x1="1064" y1="28" x2="1064" y2="3612" stroke="#cbd5e1" stroke-width="1"/>
  <line x1="1092" y1="28" x2="1092" y2="3612" stroke="#cbd5e1" stroke-width="1"/>
  <line x1="1120" y1="28" x2="1120" y2="3612" stroke="#cbd5e1" stroke-width="1"/>
  <line x1="1148" y1="28" x2="1148" y2="3612" stroke="#cbd5e1" stroke-width="1"/>
  <line x1="1176" y1="28" x2="1176" y2="3612" stroke="#cbd5e1" stroke-width="1"/>
  <line x1="1204" y1="28" x2="1204" y2="3612" stroke="#cbd5e1" stroke-width="1"/>
  <line x1="1232" y1="28" x2="1232" y2="3612" stroke="#cbd5e1" stroke-width="1"/>
  <line x1="1260" y1="28" x2="1260" y2="3612" stroke="#cbd5e1" stroke-width="1"/>
  <line x1="1288" y1="28" x2="1288" y2="3612" stroke="#cbd5e1" stroke-width="1"/>
  <line x1="1316" y1="28" x2="1316" y2="3612" stroke="#cbd5e1" stroke-width="1"/>
  <line x1="1344" y1="28" x2="1344" y2="3612" stroke="#cbd5e1" stroke-width="1"/>
  <line x1="1372" y1="28" x2="1372" y2="3612" stroke="#cbd5e1" stroke-width="1"/>
  <line x1="1400" y1="28" x2="1400" y2="3612" stroke="#cbd5e1" stroke-width="1"/>
  <line x1="1428" y1="28" x2="1428" y2="3612" stroke="#cbd5e1" stroke-width="1"/>
  <line x1="1456" y1="28" x2="1456" y2="3612" stroke="#cbd5e1" stroke-width="1"/>
  <line x1="1484" y1="28" x2="1484" y2="3612" stroke="#cbd5e1" stroke-width="1"/>
  <line x1="1512" y1="28" x2="1512" y2="3612" stroke="#cbd5e1" stroke-width="1"/>
  <line x1="1540" y1="28" x2="1540" y2="3612" stroke="#cbd5e1" stroke-width="1"/>
  <line x1="1568" y1="28" x2="1568" y2="3612" stroke="#cbd5e1" stroke-width="1"/>
  <line x1="1596" y1="28" x2="1596" y2="3612" stroke="#cbd5e1" stroke-width="1"/>
  <line x1="1624" y1="28" x2="1624" y2="3612" stroke="#cbd5e1" stroke-width="1"/>
  <line x1="1652" y1="28" x2="1652" y2="3612" stroke="#cbd5e1" stroke-width="1"/>
  <line x1="1680" y1="28" x2="1680" y2="3612" stroke="#cbd5e1" stroke-width="1"/>
  <line x1="1708" y1="28" x2="1708" y2="3612" stroke="#cbd5e1" stroke-width="1"/>
  <line x1="1736" y1="28" x2="1736" y2="3612" stroke="#cbd5e1" stroke-width="1"/>
  <line x1="1764" y1="28" x2="1764" y2="3612" stroke="#cbd5e1" stroke-width="1"/>
  <line x1="1792" y1="28" x2="1792" y2="3612" stroke="#cbd5e1" stroke-width="1"/>
  <line x1="1820" y1="28" x2="1820" y2="3612" stroke="#cbd5e1" stroke-width="1"/>
  <line x1="1848" y1="28" x2="1848" y2="3612" stroke="#cbd5e1" stroke-width="1"/>
  <line x1="1876" y1="28" x2="1876" y2="3612" stroke="#cbd5e1" stroke-width="1"/>
  <line x1="1904" y1="28" x2="1904" y2="3612" stroke="#cbd5e1" stroke-width="1"/>
  <line x1="1932" y1="28" x2="1932" y2="3612" stroke="#cbd5e1" stroke-width="1"/>
  <line x1="1960" y1="28" x2="1960" y2="3612" stroke="#cbd5e1" stroke-width="1"/>
  <line x1="1988" y1="28" x2="1988" y2="3612" stroke="#cbd5e1" stroke-width="1"/>
  <line x1="2016" y1="28" x2="2016" y2="3612" stroke="#cbd5e1" stroke-width="1"/>
  <line x1="2044" y1="28" x2="2044" y2="3612" stroke="#cbd5e1" stroke-width="1"/>
  <line x1="2072" y1="28" x2="2072" y2="3612" stroke="#cbd5e1" stroke-width="1"/>
  <line x1="2100" y1="28" x2="2100" y2="3612" stroke="#cbd5e1" stroke-width="1"/>
  <line x1="2128" y1="28" x2="2128" y2="3612" stroke="#cbd5e1" stroke-width="1"/>
  <line x1="2156" y1="28" x2="2156" y2="3612" stroke="#cbd5e1" stroke-width="1"/>
  <line x1="2184" y1="28" x2="2184" y2="3612" stroke="#cbd5e1" stroke-width="1"/>
  <line x1="2212" y1="28" x2="2212" y2="3612" stroke="#cbd5e1" stroke-width="1"/>
  <line x1="2240" y1="28" x2="2240" y2="3612" stroke="#cbd5e1" stroke-width="1"/>
  <line x1="2268" y1="28" x2="2268" y2="3612" stroke="#cbd5e1" stroke-width="1"/>
  <line x1="2296" y1="28" x2="2296" y2="3612" stroke="#cbd5e1" stroke-width="1"/>
  <line x1="2324" y1="28" x2="2324" y2="3612" stroke="#cbd5e1" stroke-width="1"/>
  <line x1="2352" y1="28" x2="2352" y2="3612" stroke="#cbd5e1" stroke-width="1"/>
  <line x1="2380" y1="28" x2="2380" y2="3612" stroke="#cbd5e1" stroke-width="1"/>
  <line x1="2408" y1="28" x2="2408" y2="3612" stroke="#cbd5e1" stroke-width="1"/>
  <line x1="2436" y1="28" x2="2436" y2="3612" stroke="#cbd5e1" stroke-width="1"/>
  <line x1="2464" y1="28" x2="2464" y2="3612" stroke="#cbd5e1" stroke-width="1"/>
  <line x1="2492" y1="28" x2="2492" y2="3612" stroke="#cbd5e1" stroke-width="1"/>
  <line x1="2520" y1="28" x2="2520" y2="3612" stroke="#cbd5e1" stroke-width="1"/>
  <line x1="2548" y1="28" x2="2548" y2="3612" stroke="#cbd5e1" stroke-width="1"/>
  <line x1="2576" y1="28" x2="2576" y2="3612" stroke="#cbd5e1" stroke-width="1"/>
  <line x1="2604" y1="28" x2="2604" y2="3612" stroke="#cbd5e1" stroke-width="1"/>
  <line x1="2632" y1="28" x2="2632" y2="3612" stroke="#cbd5e1" stroke-width="1"/>
  <line x1="2660" y1="28" x2="2660" y2="3612" stroke="#cbd5e1" stroke-width="1"/>
  <line x1="2688" y1="28" x2="2688" y2="3612" stroke="#cbd5e1" stroke-width="1"/>
  <line x1="2716" y1="28" x2="2716" y2="3612" stroke="#cbd5e1" stroke-width="1"/>
  <line x1="2744" y1="28" x2="2744" y2="3612" stroke="#cbd5e1" stroke-width="1"/>
  <line x1="2772" y1="28" x2="2772" y2="3612" stroke="#cbd5e1" stroke-width="1"/>
  <line x1="2800" y1="28" x2="2800" y2="3612" stroke="#cbd5e1" stroke-width="1"/>
  <line x1="2828" y1="28" x2="2828" y2="3612" stroke="#cbd5e1" stroke-width="1"/>
  <line x1="2856" y1="28" x2="2856" y2="3612" stroke="#cbd5e1" stroke-width="1"/>
  <line x1="2884" y1="28" x2="2884" y2="3612" stroke="#cbd5e1" stroke-width="1"/>
  <line x1="2912" y1="28" x2="2912" y2="3612" stroke="#cbd5e1" stroke-width="1"/>
  <line x1="2940" y1="28" x2="2940" y2="3612" stroke="#cbd5e1" stroke-width="1"/>
  <line x1="2968" y1="28" x2="2968" y2="3612" stroke="#cbd5e1" stroke-width="1"/>
  <line x1="2996" y1="28" x2="2996" y2="3612" stroke="#cbd5e1" stroke-width="1"/>
  <line x1="3024" y1="28" x2="3024" y2="3612" stroke="#cbd5e1" stroke-width="1"/>
  <line x1="3052" y1="28" x2="3052" y2="3612" stroke="#cbd5e1" stroke-width="1"/>
  <line x1="3080" y1="28" x2="3080" y2="3612" stroke="#cbd5e1" stroke-width="1"/>
  <line x1="3108" y1="28" x2="3108" y2="3612" stroke="#cbd5e1" stroke-width="1"/>
  <line x1="3136" y1="28" x2="3136" y2="3612" stroke="#cbd5e1" stroke-width="1"/>
  <line x1="3164" y1="28" x2="3164" y2="3612" stroke="#cbd5e1" stroke-width="1"/>
  <line x1="3192" y1="28" x2="3192" y2="3612" stroke="#cbd5e1" stroke-width="1"/>
  <line x1="3220" y1="28" x2="3220" y2="3612" stroke="#cbd5e1" stroke-width="1"/>
  <line x1="3248" y1="28" x2="3248" y2="3612" stroke="#cbd5e1" stroke-width="1"/>
  <line x1="3276" y1="28" x2="3276" y2="3612" stroke="#cbd5e1" stroke-width="1"/>
  <line x1="3304" y1="28" x2="3304" y2="3612" stroke="#cbd5e1" stroke-width="1"/>
  <line x1="3332" y1="28" x2="3332" y2="3612" stroke="#cbd5e1" stroke-width="1"/>
  <line x1="3360" y1="28" x2="3360" y2="3612" stroke="#cbd5e1" stroke-width="1"/>
  <line x1="3388" y1="28" x2="3388" y2="3612" stroke="#cbd5e1" stroke-width="1"/>
  <line x1="3416" y1="28" x2="3416" y2="3612" stroke="#cbd5e1" stroke-width="1"/>
  <line x1="3444" y1="28" x2="3444" y2="3612" stroke="#cbd5e1" stroke-width="1"/>
  <line x1="3472" y1="28" x2="3472" y2="3612" stroke="#cbd5e1" stroke-width="1"/>
  <line x1="3500" y1="28" x2="3500" y2="3612" stroke="#cbd5e1" stroke-width="1"/>
  <line x1="3528" y1="28" x2="3528" y2="3612" stroke="#cbd5e1" stroke-width="1"/>
  <line x1="3556" y1="28" x2="3556" y2="3612" stroke="#cbd5e1" stroke-width="1"/>
  <line x1="3584" y1="28" x2="3584" y2="3612" stroke="#cbd5e1" stroke-width="1"/>
  <line x1="3612" y1="28" x2="3612" y2="3612" stroke="#cbd5e1" stroke-width="1"/>
  <polyline fill="none" stroke="#dc2626" stroke-width="4" stroke-linecap="round" stroke-linejoin="round" opacity="0.78" points="854,42 3598,3486 "/>
  <circle cx="854" cy="42" r="8" fill="#dc2626" stroke="#0f172a" stroke-width="1.5"/>
  <rect x="3590" y="3478" width="16" height="16" fill="#dc2626" stroke="#0f172a" stroke-width="2"/>
  <text x="854" y="31" text-anchor="middle" font-size="10" font-family="Arial" font-weight="700" fill="#0f172a">R1</text>
  <text x="3598" y="3506" text-anchor="middle" font-size="10" font-family="Arial" font-weight="700" fill="#0f172a">R1</text>
  <polyline fill="none" stroke="#2563eb" stroke-width="4" stroke-linecap="round" stroke-linejoin="round" opacity="0.78" points="490,126 2730,3066 "/>
  <circle cx="490" cy="126" r="8" fill="#2563eb" stroke="#0f172a" stroke-width="1.5"/>
  <rect x="2722" y="3058" width="16" height="16" fill="#2563eb" stroke="#0f172a" stroke-width="2"/>
  <text x="490" y="115" text-anchor="middle" font-size="10" font-family="Arial" font-weight="700" fill="#0f172a">R2</text>
  <text x="2730" y="3086" text-anchor="middle" font-size="10" font-family="Arial" font-weight="700" fill="#0f172a">R2</text>
  <polyline fill="none" stroke="#16a34a" stroke-width="4" stroke-linecap="round" stroke-linejoin="round" opacity="0.78" points="266,462 3290,2898 "/>
  <circle cx="266" cy="462" r="8" fill="#16a34a" stroke="#0f172a" stroke-width="1.5"/>
  <rect x="3282" y="2890" width="16" height="16" fill="#16a34a" stroke="#0f172a" stroke-width="2"/>
  <text x="266" y="451" text-anchor="middle" font-size="10" font-family="Arial" font-weight="700" fill="#0f172a">R3</text>
  <text x="3290" y="2918" text-anchor="middle" font-size="10" font-family="Arial" font-weight="700" fill="#0f172a">R3</text>
  <polyline fill="none" stroke="#ea580c" stroke-width="4" stroke-linecap="round" stroke-linejoin="round" opacity="0.78" points="714,826 3094,2394 "/>
  <circle cx="714" cy="826" r="8" fill="#ea580c" stroke="#0f172a" stroke-width="1.5"/>
  <rect x="3086" y="2386" width="16" height="16" fill="#ea580c" stroke="#0f172a" stroke-width="2"/>
  <text x="714" y="815" text-anchor="middle" font-size="10" font-family="Arial" font-weight="700" fill="#0f172a">R4</text>
  <text x="3094" y="2414" text-anchor="middle" font-size="10" font-family="Arial" font-weight="700" fill="#0f172a">R4</text>
  <polyline fill="none" stroke="#0891b2" stroke-width="4" stroke-linecap="round" stroke-linejoin="round" opacity="0.78" points="154,1330 2926,2366 "/>
  <circle cx="154" cy="1330" r="8" fill="#0891b2" stroke="#0f172a" stroke-width="1.5"/>
  <rect x="2918" y="2358" width="16" height="16" fill="#0891b2" stroke="#0f172a" stroke-width="2"/>
  <text x="154" y="1319" text-anchor="middle" font-size="10" font-family="Arial" font-weight="700" fill="#0f172a">R5</text>
  <text x="2926" y="2386" text-anchor="middle" font-size="10" font-family="Arial" font-weight="700" fill="#0f172a">R5</text>
  <polyline fill="none" stroke="#9333ea" stroke-width="4" stroke-linecap="round" stroke-linejoin="round" opacity="0.78" points="350,2142 3038,1918 "/>
  <circle cx="350" cy="2142" r="8" fill="#9333ea" stroke="#0f172a" stroke-width="1.5"/>
  <rect x="3030" y="1910" width="16" height="16" fill="#9333ea" stroke="#0f172a" stroke-width="2"/>
  <text x="350" y="2131" text-anchor="middle" font-size="10" font-family="Arial" font-weight="700" fill="#0f172a">R6</text>
  <text x="3038" y="1938" text-anchor="middle" font-size="10" font-family="Arial" font-weight="700" fill="#0f172a">R6</text>
  <polyline fill="none" stroke="#be123c" stroke-width="4" stroke-linecap="round" stroke-linejoin="round" opacity="0.78" points="70,2170 3486,1750 "/>
  <circle cx="70" cy="2170" r="8" fill="#be123c" stroke="#0f172a" stroke-width="1.5"/>
  <rect x="3478" y="1742" width="16" height="16" fill="#be123c" stroke="#0f172a" stroke-width="2"/>
  <text x="70" y="2159" text-anchor="middle" font-size="10" font-family="Arial" font-weight="700" fill="#0f172a">R7</text>
  <text x="3486" y="1770" text-anchor="middle" font-size="10" font-family="Arial" font-weight="700" fill="#0f172a">R7</text>
  <polyline fill="none" stroke="#4d7c0f" stroke-width="4" stroke-linecap="round" stroke-linejoin="round" opacity="0.78" points="42,2366 3066,1554 "/>
  <circle cx="42" cy="2366" r="8" fill="#4d7c0f" stroke="#0f172a" stroke-width="1.5"/>
  <rect x="3058" y="1546" width="16" height="16" fill="#4d7c0f" stroke="#0f172a" stroke-width="2"/>
  <text x="42" y="2355" text-anchor="middle" font-size="10" font-family="Arial" font-weight="700" fill="#0f172a">R8</text>
  <text x="3066" y="1574" text-anchor="middle" font-size="10" font-family="Arial" font-weight="700" fill="#0f172a">R8</text>
  <polyline fill="none" stroke="#0f766e" stroke-width="4" stroke-linecap="round" stroke-linejoin="round" opacity="0.78" points="630,2506 2954,1302 "/>
  <circle cx="630" cy="2506" r="8" fill="#0f766e" stroke="#0f172a" stroke-width="1.5"/>
  <rect x="2946" y="1294" width="16" height="16" fill="#0f766e" stroke="#0f172a" stroke-width="2"/>
  <text x="630" y="2495" text-anchor="middle" font-size="10" font-family="Arial" font-weight="700" fill="#0f172a">R9</text>
  <text x="2954" y="1322" text-anchor="middle" font-size="10" font-family="Arial" font-weight="700" fill="#0f172a">R9</text>
  <polyline fill="none" stroke="#b45309" stroke-width="4" stroke-linecap="round" stroke-linejoin="round" opacity="0.78" points="910,2646 3234,1190 "/>
  <circle cx="910" cy="2646" r="8" fill="#b45309" stroke="#0f172a" stroke-width="1.5"/>
  <rect x="3226" y="1182" width="16" height="16" fill="#b45309" stroke="#0f172a" stroke-width="2"/>
  <text x="910" y="2635" text-anchor="middle" font-size="10" font-family="Arial" font-weight="700" fill="#0f172a">R10</text>
  <text x="3234" y="1210" text-anchor="middle" font-size="10" font-family="Arial" font-weight="700" fill="#0f172a">R10</text>
  <polyline fill="none" stroke="#1d4ed8" stroke-width="4" stroke-linecap="round" stroke-linejoin="round" opacity="0.78" points="98,2674 3570,910 "/>
  <circle cx="98" cy="2674" r="8" fill="#1d4ed8" stroke="#0f172a" stroke-width="1.5"/>
  <rect x="3562" y="902" width="16" height="16" fill="#1d4ed8" stroke="#0f172a" stroke-width="2"/>
  <text x="98" y="2663" text-anchor="middle" font-size="10" font-family="Arial" font-weight="700" fill="#0f172a">R11</text>
  <text x="3570" y="930" text-anchor="middle" font-size="10" font-family="Arial" font-weight="700" fill="#0f172a">R11</text>
  <polyline fill="none" stroke="#c026d3" stroke-width="4" stroke-linecap="round" stroke-linejoin="round" opacity="0.78" points="910,2674 3122,686 "/>
  <circle cx="910" cy="2674" r="8" fill="#c026d3" stroke="#0f172a" stroke-width="1.5"/>
  <rect x="3114" y="678" width="16" height="16" fill="#c026d3" stroke="#0f172a" stroke-width="2"/>
  <text x="910" y="2663" text-anchor="middle" font-size="10" font-family="Arial" font-weight="700" fill="#0f172a">R12</text>
  <text x="3122" y="706" text-anchor="middle" font-size="10" font-family="Arial" font-weight="700" fill="#0f172a">R12</text>
  <polyline fill="none" stroke="#dc2626" stroke-width="4" stroke-linecap="round" stroke-linejoin="round" opacity="0.78" points="658,2814 3486,490 "/>
  <circle cx="658" cy="2814" r="8" fill="#dc2626" stroke="#0f172a" stroke-width="1.5"/>
  <rect x="3478" y="482" width="16" height="16" fill="#dc2626" stroke="#0f172a" stroke-width="2"/>
  <text x="658" y="2803" text-anchor="middle" font-size="10" font-family="Arial" font-weight="700" fill="#0f172a">R13</text>
  <text x="3486" y="510" text-anchor="middle" font-size="10" font-family="Arial" font-weight="700" fill="#0f172a">R13</text>
  <polyline fill="none" stroke="#2563eb" stroke-width="4" stroke-linecap="round" stroke-linejoin="round" opacity="0.78" points="658,2898 3038,322 "/>
  <circle cx="658" cy="2898" r="8" fill="#2563eb" stroke="#0f172a" stroke-width="1.5"/>
  <rect x="3030" y="314" width="16" height="16" fill="#2563eb" stroke="#0f172a" stroke-width="2"/>
  <text x="658" y="2887" text-anchor="middle" font-size="10" font-family="Arial" font-weight="700" fill="#0f172a">R14</text>
  <text x="3038" y="342" text-anchor="middle" font-size="10" font-family="Arial" font-weight="700" fill="#0f172a">R14</text>
  <polyline fill="none" stroke="#16a34a" stroke-width="4" stroke-linecap="round" stroke-linejoin="round" opacity="0.78" points="686,2926 2954,294 "/>
  <circle cx="686" cy="2926" r="8" fill="#16a34a" stroke="#0f172a" stroke-width="1.5"/>
  <rect x="2946" y="286" width="16" height="16" fill="#16a34a" stroke="#0f172a" stroke-width="2"/>
  <text x="686" y="2915" text-anchor="middle" font-size="10" font-family="Arial" font-weight="700" fill="#0f172a">R15</text>
  <text x="2954" y="314" text-anchor="middle" font-size="10" font-family="Arial" font-weight="700" fill="#0f172a">R15</text>
  <polyline fill="none" stroke="#ea580c" stroke-width="4" stroke-linecap="round" stroke-linejoin="round" opacity="0.78" points="462,3430 3318,210 "/>
  <circle cx="462" cy="3430" r="8" fill="#ea580c" stroke="#0f172a" stroke-width="1.5"/>
  <rect x="3310" y="202" width="16" height="16" fill="#ea580c" stroke="#0f172a" stroke-width="2"/>
  <text x="462" y="3419" text-anchor="middle" font-size="10" font-family="Arial" font-weight="700" fill="#0f172a">R16</text>
  <text x="3318" y="230" text-anchor="middle" font-size="10" font-family="Arial" font-weight="700" fill="#0f172a">R16</text>
</svg>
